<svg xmlns="http://www.w3.org/2000/svg" viewBox="0 0 1280 640" fill="none">
  <defs>
    <radialGradient id="centerGlow" cx="50%" cy="50%" r="35%">
      <stop offset="0%" style="stop-color:#0d1f17;stop-opacity:0.8"/>
      <stop offset="100%" style="stop-color:#050a05;stop-opacity:0"/>
    </radialGradient>
    <radialGradient id="networkFade" cx="50%" cy="50%" r="50%">
      <stop offset="0%" style="stop-color:#22c55e;stop-opacity:0.4"/>
      <stop offset="60%" style="stop-color:#22c55e;stop-opacity:0.15"/>
      <stop offset="100%" style="stop-color:#22c55e;stop-opacity:0"/>
    </radialGradient>
  </defs>

  <!-- Background -->
  <rect width="1280" height="640" fill="#050a05"/>
  <rect width="1280" height="640" fill="url(#centerGlow)"/>

  <!-- Outer network — spreading mycelium tendrils -->
  <g stroke="#22c55e" fill="none" stroke-linecap="round" opacity="0.12">
    <path d="M80,400 Q150,350 240,330" stroke-width="1"/>
    <path d="M60,300 Q130,280 220,290" stroke-width="0.8"/>
    <path d="M100,500 Q170,460 260,420" stroke-width="0.8"/>
    <path d="M40,220 Q110,230 200,260" stroke-width="0.6"/>
    <path d="M1200,400 Q1130,350 1040,330" stroke-width="1"/>
    <path d="M1220,300 Q1150,280 1060,290" stroke-width="0.8"/>
    <path d="M1180,500 Q1110,460 1020,420" stroke-width="0.8"/>
    <path d="M1240,220 Q1170,230 1080,260" stroke-width="0.6"/>
    <path d="M500,60 Q520,120 540,180" stroke-width="0.8"/>
    <path d="M640,40 Q640,100 640,160" stroke-width="0.6"/>
    <path d="M780,60 Q760,120 740,180" stroke-width="0.8"/>
    <path d="M500,580 Q520,520 540,460" stroke-width="0.8"/>
    <path d="M640,600 Q640,540 640,480" stroke-width="0.6"/>
    <path d="M780,580 Q760,520 740,460" stroke-width="0.8"/>
  </g>

  <!-- Outer network nodes -->
  <g fill="#22c55e" opacity="0.1">
    <circle cx="80" cy="400" r="3"/>
    <circle cx="60" cy="300" r="2.5"/>
    <circle cx="100" cy="500" r="2"/>
    <circle cx="40" cy="220" r="2"/>
    <circle cx="1200" cy="400" r="3"/>
    <circle cx="1220" cy="300" r="2.5"/>
    <circle cx="1180" cy="500" r="2"/>
    <circle cx="1240" cy="220" r="2"/>
    <circle cx="500" cy="60" r="2"/>
    <circle cx="640" cy="40" r="2.5"/>
    <circle cx="780" cy="60" r="2"/>
    <circle cx="500" cy="580" r="2"/>
    <circle cx="780" cy="580" r="2"/>
  </g>

  <!-- Mid-range network — connecting branches -->
  <g stroke="#22c55e" fill="none" stroke-linecap="round" opacity="0.2">
    <path d="M240,330 Q300,310 370,290" stroke-width="1.2"/>
    <path d="M220,290 Q280,280 350,270" stroke-width="1"/>
    <path d="M260,420 Q330,380 400,350" stroke-width="1"/>
    <path d="M200,260 Q270,260 340,250" stroke-width="0.8"/>
    <path d="M1040,330 Q980,310 910,290" stroke-width="1.2"/>
    <path d="M1060,290 Q1000,280 930,270" stroke-width="1"/>
    <path d="M1020,420 Q950,380 880,350" stroke-width="1"/>
    <path d="M1080,260 Q1010,260 940,250" stroke-width="0.8"/>
    <path d="M540,180 Q570,210 600,240" stroke-width="1"/>
    <path d="M640,160 Q640,200 640,230" stroke-width="1"/>
    <path d="M740,180 Q710,210 680,240" stroke-width="1"/>
    <path d="M540,460 Q570,430 600,400" stroke-width="1"/>
    <path d="M640,480 Q640,440 640,410" stroke-width="1"/>
    <path d="M740,460 Q710,430 680,400" stroke-width="1"/>
  </g>

  <!-- Mid-range nodes -->
  <g fill="#22c55e" opacity="0.2">
    <circle cx="240" cy="330" r="3.5"/>
    <circle cx="220" cy="290" r="3"/>
    <circle cx="260" cy="420" r="3"/>
    <circle cx="200" cy="260" r="2.5"/>
    <circle cx="1040" cy="330" r="3.5"/>
    <circle cx="1060" cy="290" r="3"/>
    <circle cx="1020" cy="420" r="3"/>
    <circle cx="1080" cy="260" r="2.5"/>
    <circle cx="540" cy="180" r="3"/>
    <circle cx="740" cy="180" r="3"/>
  </g>

  <!-- Inner network — dense connections near the M -->
  <g stroke="#22c55e" fill="none" stroke-linecap="round" opacity="0.3">
    <path d="M370,290 Q420,285 470,280" stroke-width="1.5"/>
    <path d="M400,350 Q450,340 500,320" stroke-width="1.2"/>
    <path d="M350,270 Q410,260 460,255" stroke-width="1"/>
    <path d="M910,290 Q860,285 810,280" stroke-width="1.5"/>
    <path d="M880,350 Q830,340 780,320" stroke-width="1.2"/>
    <path d="M930,270 Q870,260 820,255" stroke-width="1"/>
    <path d="M470,280 Q500,300 520,320" stroke-width="1"/>
    <path d="M810,280 Q780,300 760,320" stroke-width="1"/>
  </g>

  <!-- Inner nodes -->
  <g fill="#4ade80" opacity="0.35">
    <circle cx="370" cy="290" r="4"/>
    <circle cx="400" cy="350" r="3.5"/>
    <circle cx="350" cy="270" r="3"/>
    <circle cx="910" cy="290" r="4"/>
    <circle cx="880" cy="350" r="3.5"/>
    <circle cx="930" cy="270" r="3"/>
    <circle cx="470" cy="280" r="3.5"/>
    <circle cx="810" cy="280" r="3.5"/>
  </g>

  <!-- The M mark — center focal point -->
  <g transform="translate(565, 230)" stroke-linecap="round" stroke-linejoin="round">
    <path d="M0,150 L0,0 L75,67 L150,0 L150,150" stroke="#22c55e" fill="none" stroke-width="6" opacity="0.9"/>
    <circle cx="0" cy="150" r="8" fill="#22c55e" opacity="0.95"/>
    <circle cx="0" cy="0" r="8" fill="#4ade80" opacity="0.9"/>
    <circle cx="75" cy="67" r="9" fill="#22c55e"/>
    <circle cx="150" cy="0" r="8" fill="#4ade80" opacity="0.9"/>
    <circle cx="150" cy="150" r="8" fill="#22c55e" opacity="0.95"/>
    <line x1="0" y1="75" x2="75" y2="67" stroke="#4ade80" stroke-width="1.5" opacity="0.25"/>
    <line x1="75" y1="67" x2="150" y2="75" stroke="#4ade80" stroke-width="1.5" opacity="0.25"/>
    <circle cx="0" cy="75" r="4.5" fill="#86efac" opacity="0.4"/>
    <circle cx="150" cy="75" r="4.5" fill="#86efac" opacity="0.4"/>
  </g>

  <!-- Wordmark -->
  <text x="640" y="440" text-anchor="middle" font-family="'Geist Mono', 'SF Mono', 'Fira Code', monospace" font-size="52" font-weight="700" fill="#e2e8f0" letter-spacing="-2">myco</text>
  <text x="640" y="470" text-anchor="middle" font-family="-apple-system, system-ui, sans-serif" font-size="15" fill="#86efac" letter-spacing="0.5" opacity="0.8">The connected intelligence layer for agents and AI-assisted teams</text>

  <!-- Subtle vignette -->
  <rect width="1280" height="640" fill="url(#networkFade)" opacity="0.05"/>
</svg>
